<svg width="85" height="95" viewBox="0 0 85 95" fill="none" xmlns="http://www.w3.org/2000/svg">
<rect width="65" height="65" rx="32.5" fill="#70B446" fill-opacity="0.1"/>
<g clip-path="url(#clip0_1_76)">
<path d="M51.001 9.88696C42.422 9.88696 34.357 13.227 28.292 19.293C22.226 25.359 18.887 33.423 18.888 42.001C18.888 50.579 22.228 58.586 28.292 64.652C34.357 70.717 42.421 74 50.999 74C51 74 51.001 74 51.001 74H51.004C68.71 74 83.114 59.649 83.113 41.943C83.114 33.365 79.773 25.329 73.708 19.263C67.644 13.199 59.579 9.88696 51.001 9.88696ZM51 72.113V73.113V72C50.999 72 50.999 72 50.998 72C42.955 72 35.393 68.924 29.706 63.238C24.02 57.55 20.888 50.017 20.888 41.973C20.887 33.929 24.018 26.381 29.706 20.693C35.394 15.005 42.956 11.881 51.001 11.881C59.045 11.881 66.606 15.017 72.294 20.704C77.982 26.392 81.111 33.955 81.111 41.999C81.112 58.601 68 72.112 51 72.113Z" fill="#70B446"/>
<path d="M51 19C44.856 19 39.081 21.393 34.737 25.738C30.393 30.082 28 35.857 28 42H30C30 36.392 32.185 31.118 36.151 27.151C40.117 23.185 45.391 21 51 21C56.609 21 61.883 23.185 65.85 27.152C69.815 31.119 72 36.392 72 42H74C74 35.858 71.607 30.082 67.264 25.737C62.921 21.392 57.144 19 51 19Z" fill="#70B446"/>
<path d="M49.757 42.2929L43.757 35.3459L42.243 36.6539L48.315 43.6859C48.115 44.0949 47.998 44.5429 48 45.0129C48.004 45.8139 48.318 46.5659 48.888 47.1299C49.453 47.6909 50.204 47.9999 51 47.9999C51.807 47.9999 52.562 47.6849 53.131 47.1119C54.294 45.9369 54.286 44.0339 53.112 42.8699C52.233 41.9989 50.857 41.8129 49.757 42.2929ZM51.71 45.7039C51.334 46.0819 50.675 46.0849 50.296 45.7099C50.107 45.5219 50.001 45.2709 50 45.0039C49.999 44.7369 50.102 44.4859 50.291 44.2959C50.479 44.1039 50.731 43.9999 51 43.9999C51.266 43.9999 51.516 44.1029 51.704 44.2909C52.096 44.6779 52.098 45.3119 51.71 45.7039Z" fill="#70B446"/>
</g>
<defs>
<clipPath id="clip0_1_76">
<rect width="64" height="64" fill="white" transform="translate(19 10)"/>
</clipPath>
</defs>
</svg>
