<?xml version="1.0" standalone="no"?>
<!DOCTYPE svg PUBLIC "-//W3C//DTD SVG 20010904//EN"
 "http://www.w3.org/TR/2001/REC-SVG-20010904/DTD/svg10.dtd">
<svg version="1.0" xmlns="http://www.w3.org/2000/svg"
 width="920.000000pt" height="601.000000pt" viewBox="0 0 920.000000 601.000000"
 preserveAspectRatio="xMidYMid meet">

<g transform="translate(0.000000,601.000000) scale(0.100000,-0.100000)"
fill="#000000" stroke="none">
<path d="M4368 5929 c-10 -5 -18 -21 -18 -34 l0 -25 190 0 c155 0 190 -3 190
-14 0 -14 -42 -26 -94 -26 -26 0 -41 -10 -79 -54 -25 -29 -55 -56 -66 -59 -47
-12 -170 97 -180 160 -6 36 -8 38 -46 41 -109 7 -181 -130 -176 -335 1 -45 21
-61 21 -18 0 44 44 61 180 69 73 4 126 3 137 -3 16 -8 15 -10 -7 -15 -14 -2
-72 -7 -129 -10 -57 -3 -106 -8 -110 -11 -11 -12 25 -25 70 -25 51 0 109 -17
109 -31 0 -18 -63 -223 -76 -248 -8 -14 -14 -31 -14 -36 0 -16 -67 -76 -140
-125 -36 -23 -69 -48 -75 -54 -5 -6 -28 -24 -49 -40 -22 -16 -61 -49 -88 -73
-27 -24 -58 -43 -69 -43 -26 0 -136 77 -320 224 -101 82 -121 105 -114 136 30
121 30 211 -1 257 -8 14 -46 39 -82 56 l-67 32 -387 3 c-214 2 -395 -1 -403
-6 -36 -19 132 -182 240 -231 43 -21 70 -24 207 -29 l156 -5 199 -196 c179
-178 302 -293 546 -508 91 -80 91 -81 123 -258 9 -49 18 -101 21 -115 10 -57
22 -330 22 -540 1 -266 18 -585 32 -612 18 -33 33 -14 54 67 17 69 24 82 54
102 26 17 44 22 72 19 53 -6 59 -12 59 -60 0 -75 30 -129 61 -110 5 3 9 105 9
228 0 218 0 223 23 243 43 38 78 45 228 41 122 -3 151 -7 192 -25 l47 -22 0
-223 c0 -124 5 -230 10 -238 15 -24 45 1 48 41 7 97 13 116 38 128 69 31 136
-22 149 -118 6 -41 15 -62 35 -83 32 -32 39 -33 65 -15 22 17 22 1 35 577 10
477 21 637 49 747 5 21 12 59 16 85 6 45 12 53 103 135 53 49 133 122 177 163
44 42 120 112 169 155 102 91 267 253 343 336 l52 57 163 4 c150 4 167 7 218
31 69 33 240 196 240 228 0 14 -773 11 -807 -2 -114 -46 -154 -79 -173 -145
-10 -33 -9 -51 4 -103 26 -102 22 -132 -21 -168 -221 -179 -280 -225 -356
-271 l-38 -24 -72 58 c-90 73 -166 137 -228 192 -40 37 -50 52 -58 95 -12 64
-36 215 -51 322 -6 44 -15 105 -20 135 -5 30 -12 78 -15 105 -7 61 -25 78
-112 105 -54 17 -93 20 -232 20 -94 0 -174 -5 -183 -11z"/>
<path d="M4440 5815 c-16 -20 -5 -62 19 -70 44 -14 80 28 55 63 -17 25 -56 29
-74 7z"/>
<path d="M70 5605 c0 -3 9 -23 20 -44 24 -49 79 -92 167 -134 68 -32 68 -32
273 -38 276 -9 829 -10 976 -3 l119 7 -106 108 -106 109 -671 0 c-370 0 -672
-2 -672 -5z"/>
<path d="M1570 5566 c35 -48 134 -133 188 -160 18 -9 70 -21 115 -26 93 -11
490 -13 613 -4 l81 7 -74 74 c-40 41 -85 92 -100 114 l-26 39 -414 0 -414 0
31 -44z"/>
<path d="M6786 5555 c-21 -30 -69 -84 -107 -120 l-69 -65 312 0 c373 0 472 9
533 44 53 32 198 173 190 186 -4 6 -165 10 -414 10 l-408 0 -37 -55z"/>
<path d="M7668 5494 l-117 -115 652 6 c359 4 661 10 672 15 122 50 212 119
233 178 l11 32 -667 0 -667 0 -117 -116z"/>
<path d="M206 5281 c-16 -6 -11 -14 35 -56 30 -26 83 -62 118 -78 l64 -30 723
-5 c398 -3 724 -2 724 1 0 4 -19 45 -42 92 l-42 85 -781 -1 c-429 0 -788 -4
-799 -8z"/>
<path d="M1895 5280 c-9 -14 4 -68 26 -112 25 -49 68 -63 172 -55 125 10 366
94 381 133 16 41 -3 44 -295 44 -179 0 -280 -4 -284 -10z"/>
<path d="M2567 5283 c-14 -13 -5 -22 48 -48 l55 -27 0 -48 c0 -48 0 -48 43
-62 42 -13 42 -14 45 -64 l3 -51 40 -6 c45 -6 68 -29 69 -68 0 -14 5 -40 11
-57 10 -28 16 -32 58 -38 43 -6 50 -10 62 -40 22 -58 39 -67 132 -73 11 -1 17
-10 18 -28 1 -54 13 -67 70 -78 46 -8 56 -14 67 -40 24 -56 29 -59 91 -75 49
-12 68 -22 84 -45 29 -41 36 -45 86 -45 39 0 50 -6 97 -50 54 -52 75 -58 118
-39 32 15 50 2 78 -58 11 -24 26 -42 32 -40 16 6 11 124 -11 242 l-18 101
-143 129 c-79 72 -196 179 -260 238 -64 59 -184 168 -266 242 l-150 135 -226
0 c-125 0 -230 -3 -233 -7z"/>
<path d="M6100 5234 c-36 -31 -94 -85 -130 -119 -36 -35 -102 -96 -147 -136
-275 -247 -384 -348 -428 -394 l-50 -52 -29 -151 c-15 -84 -26 -159 -22 -167
12 -31 37 -15 61 40 14 30 29 55 35 55 5 0 28 -7 51 -17 l41 -16 46 47 c50 52
76 66 126 66 25 0 41 9 69 39 26 29 48 41 79 47 24 4 46 9 51 10 4 1 11 2 16
3 5 0 17 24 26 51 9 28 20 48 24 46 4 -3 32 1 62 7 53 12 54 13 57 52 4 50 8
53 60 56 47 3 73 25 89 74 8 25 16 31 63 40 l54 10 11 56 c17 84 19 87 69 94
l46 7 0 49 c0 52 2 55 46 63 37 7 54 31 54 77 0 35 4 40 50 65 28 15 49 32 47
38 -2 7 -80 12 -233 14 l-229 2 -65 -56z"/>
<path d="M6720 5270 c-6 -11 -8 -25 -5 -30 17 -28 204 -100 328 -126 98 -21
159 -11 205 30 30 28 36 40 40 89 l4 57 -280 0 c-272 0 -282 -1 -292 -20z"/>
<path d="M7364 5204 c-25 -47 -44 -88 -40 -91 11 -11 568 -14 1011 -6 l440 8
65 32 c79 39 163 119 140 133 -9 6 -321 10 -792 10 l-777 0 -47 -86z"/>
<path d="M2510 5171 c-14 -4 -43 -17 -65 -28 -72 -37 -208 -71 -328 -84 l-119
-12 6 -30 c8 -37 21 -53 68 -83 70 -44 212 -23 366 55 106 54 139 88 138 143
-1 47 -15 55 -66 39z"/>
<path d="M6611 5166 c-20 -24 3 -79 51 -121 75 -69 255 -138 359 -139 77 0
169 69 169 126 0 10 -34 17 -127 27 -125 13 -256 47 -343 91 -55 28 -95 33
-109 16z"/>
<path d="M363 5043 c-47 -18 45 -100 160 -141 l88 -32 680 0 681 0 -7 33 c-3
17 -18 57 -33 87 l-27 55 -765 2 c-421 1 -771 -1 -777 -4z"/>
<path d="M7283 5038 c-22 -28 -73 -154 -66 -162 3 -3 310 -6 682 -6 l677 0 69
24 c102 34 153 64 181 105 22 33 23 36 7 43 -10 3 -361 7 -779 7 -598 1 -764
-2 -771 -11z"/>
<path d="M2590 4999 c-41 -17 -100 -46 -130 -64 -57 -35 -174 -71 -310 -97
-74 -14 -75 -14 -73 -44 1 -19 15 -40 37 -61 33 -30 41 -33 100 -33 76 0 167
34 288 107 87 52 188 150 188 181 0 40 -22 42 -100 11z"/>
<path d="M6515 5014 c-28 -28 -17 -56 43 -111 64 -61 151 -116 262 -166 62
-28 89 -34 152 -36 75 -2 79 -1 108 29 16 17 30 34 31 38 0 4 3 19 5 35 4 23
1 27 -18 27 -26 0 -127 18 -183 32 -22 6 -51 12 -64 15 -14 2 -70 28 -126 58
-55 30 -121 63 -147 74 -43 18 -49 18 -63 5z"/>
<path d="M2743 4880 c-13 -5 -69 -40 -125 -78 -57 -38 -126 -81 -155 -96 -71
-35 -195 -76 -233 -76 -38 0 -45 -16 -25 -63 23 -55 53 -71 122 -62 129 16
410 202 463 306 37 71 19 96 -47 69z"/>
<path d="M6384 4875 c-19 -48 58 -140 201 -239 159 -111 242 -145 329 -132 38
6 45 11 61 45 24 55 18 75 -25 79 -96 8 -214 62 -385 176 -128 84 -170 101
-181 71z"/>
<path d="M530 4786 c0 -30 46 -68 137 -113 l96 -48 661 -3 c413 -1 667 1 676
8 12 8 9 16 -23 48 -20 21 -37 41 -37 46 0 4 -12 23 -26 42 l-26 34 -729 0
c-609 0 -729 -2 -729 -14z"/>
<path d="M7165 4748 c-16 -29 -42 -64 -57 -79 -16 -15 -28 -34 -28 -43 0 -14
51 -16 533 -15 292 0 596 4 674 8 141 8 142 9 237 55 89 43 136 82 136 112 0
12 -120 14 -732 14 l-733 0 -30 -52z"/>
<path d="M2774 4659 c-77 -64 -139 -106 -209 -142 -79 -39 -217 -97 -232 -97
-2 0 -3 -15 -3 -34 0 -40 33 -72 85 -82 57 -10 159 52 395 242 95 77 144 149
124 181 -23 37 -49 26 -160 -68z"/>
<path d="M6255 4727 c-4 -12 -2 -35 4 -49 22 -57 235 -238 394 -335 49 -29 71
-37 110 -37 42 0 54 5 73 28 14 15 24 40 24 56 0 24 -5 31 -27 36 -102 25
-349 158 -398 214 -33 38 -136 110 -156 110 -11 0 -21 -9 -24 -23z"/>
<path d="M3005 4629 c-11 -6 -62 -54 -112 -106 -95 -98 -117 -116 -285 -229
-54 -36 -100 -69 -102 -73 -8 -12 51 -94 77 -107 18 -10 34 -10 68 -2 37 10
66 33 190 157 157 157 211 228 230 305 10 40 9 50 -2 57 -18 12 -40 11 -64 -2z"/>
<path d="M6127 4629 c-36 -21 -8 -100 71 -203 73 -95 269 -286 315 -307 60
-27 78 -24 119 19 72 75 74 71 -62 162 -152 102 -154 103 -276 227 -56 57
-106 103 -112 103 -6 0 -16 2 -24 5 -7 2 -21 0 -31 -6z"/>
<path d="M836 4541 c-8 -13 94 -84 183 -129 l75 -37 561 -3 c309 -1 572 1 584
6 22 8 20 12 -49 90 l-73 82 -638 0 c-375 0 -640 -4 -643 -9z"/>
<path d="M7000 4468 c-102 -121 -150 -111 508 -105 489 4 573 7 610 21 53 20
165 86 212 126 l35 29 -652 1 -652 0 -61 -72z"/>
<path d="M3163 4518 c-12 -6 -66 -65 -120 -131 -139 -172 -208 -243 -284 -292
-37 -24 -70 -48 -74 -55 -9 -15 32 -74 66 -94 51 -30 126 -11 197 49 29 24
108 123 164 205 10 14 31 44 48 68 57 80 78 134 75 185 -4 70 -24 88 -72 65z"/>
<path d="M5966 4508 c-36 -50 -15 -127 64 -244 138 -201 201 -274 274 -311 72
-37 110 -33 157 13 60 59 60 60 -79 162 -29 22 -84 77 -122 123 -151 181 -227
261 -263 275 -9 3 -21 -4 -31 -18z"/>
<path d="M3320 4383 c-40 -28 -65 -61 -122 -162 -35 -63 -86 -130 -153 -204
-117 -128 -132 -151 -113 -174 19 -24 72 -43 117 -43 68 0 133 71 247 270 68
117 78 141 94 220 17 76 11 104 -20 108 -14 1 -36 -5 -50 -15z"/>
<path d="M5797 4393 c-13 -13 -6 -89 13 -152 34 -108 195 -372 257 -421 38
-30 117 -28 166 5 20 14 37 32 37 39 0 7 -48 65 -107 128 -61 64 -123 142
-143 177 -52 94 -119 194 -144 213 -21 18 -67 24 -79 11z"/>
<path d="M3545 4311 c-16 -4 -38 -10 -47 -16 -9 -5 -46 -72 -81 -147 -76 -159
-132 -249 -210 -337 -66 -74 -77 -99 -51 -118 45 -33 129 -24 194 19 61 41
176 237 226 382 27 78 33 197 12 213 -7 5 -26 7 -43 4z"/>
<path d="M5593 4293 c-14 -20 -14 -34 -4 -98 15 -88 43 -164 106 -282 89 -168
151 -229 244 -240 46 -5 100 12 116 37 3 5 -22 42 -57 82 -35 40 -75 89 -90
108 -37 49 -111 184 -148 271 -43 102 -71 136 -116 141 -29 3 -39 0 -51 -19z"/>
<path d="M1226 4291 c-9 -13 22 -35 112 -80 185 -93 319 -128 560 -146 217
-17 580 -21 594 -7 7 7 1 27 -17 60 -37 69 -78 116 -131 152 l-45 30 -534 0
c-294 0 -536 -4 -539 -9z"/>
<path d="M6850 4273 c-66 -43 -134 -132 -155 -200 l-6 -23 238 0 c209 0 521
19 563 34 8 3 28 8 43 10 118 20 341 113 412 171 l30 24 -550 1 c-496 0 -553
-2 -575 -17z"/>
<path d="M3691 4212 c-25 -25 -71 -125 -71 -155 0 -21 -46 -140 -85 -220 -22
-45 -62 -103 -96 -141 -33 -35 -59 -73 -59 -83 0 -30 34 -55 84 -60 63 -8 110
4 146 34 59 50 142 257 174 439 21 114 19 162 -7 192 -27 29 -53 28 -86 -6z"/>
<path d="M5414 4226 c-55 -41 14 -395 113 -571 45 -81 122 -124 199 -109 34 6
94 47 94 64 0 5 -27 37 -60 72 -40 43 -74 93 -106 158 -47 95 -108 259 -99
268 7 7 -31 75 -60 105 -29 30 -52 34 -81 13z"/>
<path d="M3866 4088 c-8 -18 -17 -51 -21 -73 -30 -186 -97 -357 -182 -459 -36
-43 -27 -58 42 -73 93 -19 162 -1 195 52 19 31 20 47 18 306 -3 253 -4 274
-21 277 -12 2 -22 -7 -31 -30z"/>
<path d="M5273 4108 c-14 -22 -16 -477 -3 -523 20 -68 78 -115 142 -115 47 1
131 25 136 38 2 7 -17 41 -42 78 -26 36 -56 84 -67 106 -26 50 -78 209 -85
258 -18 132 -53 200 -81 158z"/>
<path d="M4436 3593 l-49 -4 8 -217 c8 -245 -2 -221 109 -278 69 -36 70 -36
105 -19 20 9 64 35 99 57 l62 41 0 203 c0 191 -1 204 -19 214 -19 9 -205 11
-315 3z"/>
<path d="M4148 3238 c-7 -13 -12 -48 -13 -78 l0 -54 -85 -48 c-47 -27 -94 -52
-105 -57 -41 -18 -75 -59 -75 -91 0 -28 3 -31 23 -25 12 4 46 20 74 37 32 17
69 30 95 31 l42 2 14 -119 c11 -105 11 -121 -2 -134 -14 -14 -17 -14 -34 1
-14 13 -25 15 -48 8 -38 -11 -86 8 -109 42 -14 22 -79 57 -105 57 -15 0 -12
-50 5 -106 32 -107 11 -148 -78 -148 -42 -1 -59 4 -88 26 -20 15 -49 31 -66
34 -25 5 -34 1 -51 -21 -20 -25 -21 -37 -17 -119 4 -93 17 -145 38 -158 20
-12 70 24 172 122 120 116 200 163 221 129 3 -6 -56 -72 -140 -155 -93 -92
-146 -151 -146 -164 0 -29 56 -60 108 -60 43 0 91 19 125 48 17 15 15 18 -24
58 -34 35 -40 47 -35 68 13 52 92 68 222 44 55 -10 66 -9 88 6 35 22 33 35
-14 81 -22 21 -40 47 -40 57 0 28 45 50 113 55 69 5 97 25 97 72 0 15 6 36 14
46 13 18 14 18 23 -1 13 -26 10 -64 -11 -118 l-18 -46 -69 0 c-38 0 -69 -4
-69 -9 0 -5 16 -23 36 -40 32 -29 42 -32 91 -30 81 4 95 19 100 110 4 59 0 93
-21 169 -14 52 -26 107 -26 121 0 28 -27 59 -52 59 -29 0 -41 -31 -49 -127 -7
-104 -24 -138 -53 -113 -28 22 -13 181 23 248 14 26 22 28 151 43 120 13 139
22 113 52 -26 29 -58 38 -156 46 -48 5 -90 10 -93 13 -3 4 -12 36 -19 72 -8
37 -17 71 -20 76 -11 18 -44 10 -57 -12z"/>
<path d="M4930 3182 c0 -82 -10 -89 -145 -102 -111 -10 -160 -29 -160 -61 0
-20 31 -23 106 -9 60 12 70 11 105 -6 45 -22 49 -32 62 -159 10 -90 2 -142
-19 -130 -17 11 -27 49 -34 126 -7 74 -17 99 -40 99 -18 0 -25 -20 -46 -140
-23 -131 -25 -257 -4 -287 19 -27 101 -47 154 -38 43 7 91 44 91 70 0 12 -15
15 -85 15 -72 0 -88 3 -105 20 -43 43 -52 113 -21 151 l19 24 11 -28 c6 -16
11 -44 11 -63 0 -59 23 -72 118 -66 91 5 112 -4 112 -47 0 -15 -15 -45 -35
-70 -19 -24 -35 -47 -35 -51 0 -18 41 -40 84 -46 30 -5 50 -13 56 -25 15 -27
48 -34 71 -13 32 29 24 51 -22 57 -22 3 -43 8 -47 11 -13 14 21 30 64 30 39 1
50 -3 67 -26 20 -27 20 -29 3 -84 -21 -66 -14 -78 40 -77 54 2 154 42 164 67
11 30 -2 49 -73 106 -107 86 -157 131 -157 141 0 15 44 10 81 -8 19 -9 66 -40
104 -69 109 -81 174 -107 207 -82 19 14 36 147 24 192 -11 42 -49 34 -110 -24
-39 -37 -61 -50 -82 -50 -37 0 -47 8 -68 49 -18 33 -18 98 -1 163 6 22 2 33
-23 58 -27 27 -37 30 -92 30 -59 0 -61 -1 -81 -35 -24 -40 -46 -55 -83 -55
-39 0 -42 20 -7 47 54 42 39 103 -25 103 -40 0 -64 -30 -64 -80 0 -20 -6 -44
-13 -55 -19 -25 -40 -10 -34 24 3 14 10 52 16 85 17 94 50 104 189 59 62 -20
85 -24 94 -15 19 19 -9 41 -132 101 -126 62 -127 64 -129 158 -1 55 -16 73
-60 73 -19 0 -21 -6 -21 -58z"/>
<path d="M4425 2913 c2 -16 9 -75 15 -133 20 -182 30 -244 43 -252 7 -4 55 -8
109 -8 l96 0 6 78 c4 42 11 116 16 163 6 47 10 106 10 132 l0 47 -150 0 -149
0 4 -27z m239 -189 c11 -30 6 -121 -7 -133 -20 -16 -27 -4 -27 44 0 82 18 130
34 89z m-139 -37 c14 -93 -15 -134 -34 -47 -16 73 -14 90 8 90 16 0 21 -9 26
-43z m73 -17 c-7 -93 -28 -102 -28 -12 0 60 3 72 16 72 14 0 16 -10 12 -60z"/>
<path d="M3991 2854 c-24 -30 -26 -45 -9 -62 19 -19 55 -14 72 10 44 62 -17
111 -63 52z"/>
<path d="M3677 2733 c-15 -14 -7 -90 11 -106 24 -22 58 -11 72 23 17 41 -10
90 -49 90 -15 0 -31 -3 -34 -7z"/>
<path d="M5460 2725 c-7 -8 -15 -45 -18 -81 -4 -61 -3 -66 14 -62 21 4 84 93
84 118 0 37 -56 54 -80 25z"/>
<path d="M5717 2503 c-20 -19 -4 -68 38 -120 38 -46 45 -62 45 -99 0 -24 4
-44 10 -44 13 0 60 71 60 90 0 23 -66 131 -96 158 -25 22 -45 28 -57 15z"/>
<path d="M3368 2388 c-83 -125 -82 -121 -48 -153 28 -27 28 -27 39 -7 6 12 11
28 11 37 0 9 19 33 42 54 37 35 42 44 46 95 4 51 3 56 -15 56 -14 0 -37 -26
-75 -82z"/>
<path d="M4375 2444 c-33 -8 -69 -18 -80 -23 -11 -5 -47 -19 -80 -32 -151 -58
-343 -227 -438 -386 -156 -261 -170 -606 -35 -876 104 -208 295 -383 505 -463
113 -44 163 -54 283 -60 249 -14 437 40 635 181 65 46 159 140 190 190 11 17
22 32 26 35 4 3 27 43 52 90 64 118 97 239 104 375 13 248 -53 454 -208 647
-123 154 -334 283 -529 324 -85 18 -344 17 -425 -2z m382 -146 c106 -23 161
-44 250 -96 171 -100 296 -265 353 -467 30 -103 32 -295 6 -394 -33 -123 -109
-255 -200 -349 -155 -161 -351 -243 -574 -240 -232 3 -400 74 -562 238 -81 81
-102 110 -141 190 -105 216 -116 387 -41 610 82 245 294 435 563 504 113 30
224 31 346 4z"/>
<path d="M4515 2099 c-87 -9 -158 -39 -208 -87 -62 -60 -81 -105 -82 -192 0
-77 13 -122 48 -174 14 -19 21 -47 22 -85 1 -31 5 -64 9 -74 7 -15 0 -14 -47
9 -39 19 -59 37 -71 61 -19 41 -58 62 -80 43 -9 -6 -18 -28 -22 -47 -4 -19
-17 -45 -30 -58 -50 -50 -22 -85 65 -85 40 0 73 -11 156 -49 58 -28 105 -55
105 -61 0 -5 -34 -26 -75 -45 -56 -26 -87 -35 -128 -35 -79 0 -101 -34 -52
-80 15 -14 28 -40 31 -62 5 -30 12 -40 31 -44 20 -5 33 3 76 48 30 31 74 64
104 77 l51 24 24 -23 c36 -34 66 -42 154 -42 82 0 156 24 166 54 4 9 25 3 78
-22 54 -26 79 -45 96 -72 42 -66 104 -59 104 13 0 17 9 32 25 43 17 11 25 26
25 45 0 34 -14 41 -76 41 -46 0 -204 63 -204 82 0 4 47 31 103 58 86 41 114
50 159 50 83 0 113 43 63 90 -15 14 -25 35 -25 50 0 35 -32 64 -60 55 -11 -4
-32 -24 -45 -46 -27 -43 -137 -109 -119 -72 5 10 9 44 10 75 1 40 8 66 23 87
74 103 67 240 -15 349 -59 77 -221 119 -389 101z m258 -49 c60 -23 128 -86
152 -142 24 -58 19 -154 -11 -208 l-24 -45 4 55 c2 30 7 67 11 82 9 33 -2 81
-16 76 -14 -5 -23 -101 -20 -228 2 -145 2 -146 -73 -180 -53 -24 -66 -34 -77
-63 -10 -29 -18 -36 -48 -41 -90 -15 -191 -2 -191 24 0 30 -39 69 -80 80 -40
11 -69 32 -71 53 -1 7 -3 68 -5 137 -5 214 -11 249 -36 195 -10 -22 -9 -35 5
-75 20 -56 23 -114 5 -108 -20 7 -47 98 -48 159 0 58 32 140 68 172 35 31 120
68 178 77 84 13 214 4 277 -20z m-490 -596 c56 -27 81 -44 88 -62 20 -51 6
-51 -95 -1 -85 42 -108 49 -158 49 -66 0 -74 12 -33 50 15 14 25 35 25 50 0
45 13 44 55 -4 28 -31 64 -57 118 -82z m802 84 c5 -20 18 -45 28 -55 30 -33
21 -43 -38 -43 -46 0 -74 -9 -160 -49 -107 -51 -116 -51 -96 3 7 18 33 36 95
64 69 33 89 48 111 82 30 48 46 48 60 -2z m-655 -215 c0 -70 99 -109 227 -89
64 10 97 43 107 108 4 24 14 54 22 68 10 17 13 18 9 5 -4 -11 -8 -52 -10 -92
-5 -126 -64 -182 -190 -183 -123 0 -186 61 -190 183 -1 34 -4 73 -8 87 -4 14
2 7 13 -15 11 -22 20 -54 20 -72z m25 16 l5 -54 -13 45 c-7 25 -17 56 -21 70
-7 23 -7 24 8 9 10 -9 19 -38 21 -70z m305 39 c-5 -18 -13 -49 -18 -68 l-10
-35 -1 36 c-1 40 16 99 29 99 4 0 4 -15 0 -32z m-273 -50 c-3 -8 -6 -5 -6 6
-1 11 2 17 5 13 3 -3 4 -12 1 -19z m233 7 c0 -8 -4 -15 -10 -15 -5 0 -10 7
-10 15 0 8 5 15 10 15 6 0 10 -7 10 -15z m-194 -10 c-3 -22 -19 -23 -22 -2 -1
9 4 17 11 17 7 0 12 -7 11 -15z m34 -4 c0 -11 -4 -23 -10 -26 -6 -4 -10 5 -10
19 0 14 5 26 10 26 6 0 10 -9 10 -19z m30 0 c0 -11 -4 -23 -10 -26 -6 -4 -10
5 -10 19 0 14 5 26 10 26 6 0 10 -9 10 -19z m30 -8 c0 -20 -3 -24 -11 -16 -7
7 -9 19 -6 27 10 24 17 19 17 -11z m30 -24 c0 -27 -4 -48 -9 -45 -7 5 -9 81
-2 94 6 13 11 -7 11 -49z m40 37 c0 -8 -4 -18 -10 -21 -5 -3 -10 3 -10 14 0
12 5 21 10 21 6 0 10 -6 10 -14z m-203 -58 c-3 -7 -5 -2 -5 12 0 14 2 19 5 13
2 -7 2 -19 0 -25z m233 18 c0 -8 -4 -18 -10 -21 -5 -3 -10 3 -10 14 0 12 5 21
10 21 6 0 10 -6 10 -14z m-194 -21 c1 -8 -1 -15 -5 -15 -14 0 -20 12 -14 26 6
17 16 11 19 -11z m164 5 c0 -11 -4 -20 -10 -20 -5 0 -10 9 -10 20 0 11 5 20
10 20 6 0 10 -9 10 -20z m-136 -5 c-4 -8 -8 -15 -10 -15 -2 0 -4 7 -4 15 0 8
4 15 10 15 5 0 7 -7 4 -15z m36 -5 c0 -11 -4 -20 -10 -20 -5 0 -10 9 -10 20 0
11 5 20 10 20 6 0 10 -9 10 -20z m30 0 c0 -11 -4 -20 -10 -20 -5 0 -10 9 -10
20 0 11 5 20 10 20 6 0 10 -9 10 -20z m-222 -55 c-2 -2 -33 -19 -71 -38 -47
-24 -77 -48 -99 -78 l-32 -44 -10 42 c-6 23 -21 52 -33 65 -13 14 -23 27 -23
31 0 4 22 7 49 7 34 0 70 10 122 34 l74 35 13 -26 c8 -13 12 -26 10 -28z m618
-15 c51 0 54 -7 19 -40 -14 -13 -25 -31 -24 -40 6 -60 -20 -67 -53 -14 -16 24
-45 46 -90 69 -36 19 -69 38 -71 42 -3 5 -1 18 4 30 l8 23 81 -35 c52 -22 98
-35 126 -35z"/>
<path d="M4426 1699 c-22 -5 -45 -14 -53 -20 -31 -27 1 -120 49 -140 25 -10
33 -9 55 7 15 11 38 40 52 65 24 45 25 47 8 73 -19 28 -41 31 -111 15z"/>
<path d="M4663 1699 c-23 -23 -15 -73 19 -117 18 -23 41 -45 51 -48 26 -8 66
22 83 63 29 69 7 95 -91 108 -35 5 -54 3 -62 -6z"/>
<path d="M4550 1528 c-22 -35 -24 -108 -4 -115 26 -9 44 28 44 88 0 67 -11 74
-40 27z"/>
<path d="M4600 1502 c0 -46 4 -63 19 -76 26 -24 41 -12 41 32 0 38 -31 102
-50 102 -6 0 -10 -26 -10 -58z"/>
<path d="M3912 2353 c4 -23 72 -56 97 -48 25 8 38 44 20 56 -8 5 -38 9 -67 9
-46 0 -53 -3 -50 -17z"/>
<path d="M5558 2310 c-26 -17 -49 -37 -52 -45 -3 -8 9 -34 27 -57 18 -24 36
-51 40 -61 9 -24 -26 -57 -60 -57 -61 -1 -82 -52 -39 -95 17 -17 44 -27 101
-36 60 -10 81 -18 96 -37 41 -53 14 -108 -57 -118 -67 -8 -70 -36 -7 -69 91
-50 106 -86 52 -128 -38 -29 -34 -46 14 -72 35 -18 38 -18 73 -2 l36 18 -7 62
c-4 34 -13 88 -20 119 -7 31 -11 59 -9 61 2 2 -2 36 -11 76 -20 94 -20 151 0
151 25 0 66 -107 90 -240 31 -168 63 -255 102 -273 24 -11 68 12 130 66 52 46
44 57 -37 57 -60 0 -71 3 -80 21 -17 31 -2 74 44 129 65 76 82 113 68 144 -15
33 -46 34 -103 4 -49 -25 -72 -17 -77 30 -2 22 11 55 47 119 54 94 63 139 35
167 -8 9 -19 16 -23 16 -16 0 -62 -43 -77 -71 -21 -41 -60 -55 -86 -32 -18 16
-19 26 -14 84 9 87 -2 99 -88 99 -53 0 -70 -5 -108 -30z"/>
<path d="M3452 2253 c-6 -10 -13 -34 -17 -53 -15 -73 -59 -89 -123 -45 -45 31
-87 33 -102 4 -17 -30 -5 -64 51 -147 53 -79 55 -87 37 -127 -10 -22 -16 -25
-37 -20 -15 3 -54 9 -88 12 l-63 5 0 -31 c0 -32 19 -56 74 -94 32 -22 42 -58
26 -97 -9 -23 -22 -33 -54 -41 -22 -6 -47 -13 -53 -15 -20 -5 -15 -48 7 -72
30 -32 77 -54 108 -50 22 2 32 14 54 58 14 30 36 89 47 130 69 254 84 289 115
277 22 -9 20 -51 -4 -141 -34 -123 -56 -255 -47 -279 3 -8 26 -23 51 -32 44
-17 47 -17 66 0 26 23 25 35 -5 80 -33 48 -26 67 38 108 88 57 94 75 31 102
-39 16 -59 52 -50 90 5 19 21 33 59 51 29 13 60 24 70 24 29 0 78 33 75 50 -3
11 -18 15 -61 15 -82 0 -99 34 -52 103 30 44 24 57 -51 114 -53 41 -88 48
-102 21z"/>
<path d="M5333 2204 c-7 -18 53 -84 76 -84 9 0 34 5 56 11 l40 11 -44 39 c-35
31 -51 39 -83 39 -26 0 -41 -5 -45 -16z"/>
<path d="M3724 2126 c-40 -18 -48 -30 -28 -47 23 -19 99 8 99 36 0 25 -29 29
-71 11z"/>
<path d="M5965 2043 c-14 -15 -25 -32 -25 -36 0 -16 65 29 68 46 5 25 -14 21
-43 -10z"/>
<path d="M3150 1991 c0 -21 9 -37 32 -55 18 -13 36 -22 40 -20 27 17 -18 104
-53 104 -14 0 -19 -7 -19 -29z"/>
<path d="M5530 1885 c0 -9 11 -21 25 -27 21 -9 29 -9 42 4 22 22 8 38 -33 38
-24 0 -34 -5 -34 -15z"/>
<path d="M3602 1878 c-25 -13 -26 -35 -1 -51 22 -14 69 16 69 43 0 23 -30 26
-68 8z"/>
<path d="M6032 1750 c-65 -40 -53 -80 16 -50 33 15 42 24 42 45 0 30 -14 32
-58 5z"/>
<path d="M3095 1720 c-6 -10 29 -50 44 -50 18 0 20 17 5 38 -16 23 -39 29 -49
12z"/>
<path d="M3545 1619 c-4 -6 -4 -13 -1 -16 8 -8 36 5 36 17 0 13 -27 13 -35 -1z"/>
<path d="M6047 1492 c-21 -23 -37 -67 -37 -101 0 -15 -5 -32 -11 -38 -19 -19
0 -33 41 -33 35 0 40 3 45 28 3 15 10 43 15 63 6 20 10 50 10 68 0 26 -4 31
-23 31 -13 0 -31 -8 -40 -18z"/>
<path d="M3583 1482 c-20 -12 -93 -114 -93 -129 0 -23 20 -14 66 30 39 36 45
47 42 74 -2 23 -7 30 -15 25z"/>
<path d="M5600 1465 c0 -26 32 -50 56 -41 19 7 18 30 -4 49 -28 25 -52 22 -52
-8z"/>
<path d="M5770 1455 c-7 -9 -23 -38 -36 -65 -13 -28 -29 -50 -37 -50 -7 0 -35
7 -61 16 -84 29 -88 -12 -11 -114 52 -69 59 -111 23 -136 -30 -21 -51 -20 -99
5 -74 37 -93 2 -34 -62 58 -64 59 -126 4 -155 -25 -13 -36 -13 -60 -4 -15 7
-34 18 -40 26 -6 8 -25 14 -41 14 -27 0 -29 -2 -24 -33 9 -56 34 -94 65 -100
32 -7 101 2 101 12 0 4 23 43 52 87 28 43 72 115 98 159 46 81 72 101 84 68 7
-16 -89 -221 -169 -362 -30 -53 -31 -81 -6 -112 18 -22 27 -24 106 -24 65 0
88 4 95 15 16 24 6 34 -44 47 -67 17 -86 36 -86 90 0 33 6 50 25 69 25 24 27
25 137 18 103 -6 115 -5 137 13 22 18 24 24 15 54 l-10 34 -71 3 c-83 3 -98
15 -89 65 10 55 44 78 128 87 40 4 80 11 90 15 21 8 41 56 36 86 -4 30 -29 35
-70 15 -42 -22 -107 -21 -115 0 -4 10 9 46 32 88 57 107 39 146 -69 146 -27 0
-48 -6 -56 -15z"/>
<path d="M3105 1419 c-11 -48 3 -134 26 -158 12 -13 32 -21 53 -21 44 0 50 9
26 35 -13 14 -22 40 -25 76 -4 41 -11 59 -31 77 -33 29 -41 28 -49 -9z"/>
<path d="M3280 1410 c-29 -29 -25 -63 14 -109 44 -53 51 -76 32 -105 -18 -28
-67 -39 -125 -30 l-41 7 0 -40 c0 -51 22 -71 86 -79 27 -3 63 -11 79 -16 93
-34 101 -114 16 -157 -85 -44 -79 -77 17 -86 122 -11 145 -17 167 -41 29 -31
37 -73 21 -98 -7 -11 -34 -27 -60 -35 -27 -9 -46 -20 -44 -26 1 -5 31 -10 66
-10 59 0 66 2 93 33 16 18 29 42 29 55 0 12 -30 72 -66 132 -132 218 -166 314
-101 284 12 -6 45 -51 72 -102 54 -98 105 -178 138 -214 18 -21 22 -21 48 -8
15 8 39 15 52 15 13 0 32 6 42 14 17 12 15 14 -21 20 -62 12 -74 22 -74 64 0
20 7 62 15 92 14 54 14 55 -11 80 l-25 25 -32 -38 c-26 -31 -38 -38 -61 -35
-42 5 -71 48 -71 106 0 41 6 54 47 104 32 41 45 64 41 78 -9 32 -21 33 -37 1
-26 -50 -119 -68 -157 -30 -18 18 -20 28 -14 80 9 76 -1 89 -66 89 -36 0 -54
-5 -69 -20z"/>
<path d="M5522 1237 c-15 -18 12 -57 39 -57 27 0 22 37 -7 57 -18 11 -23 11
-32 0z"/>
<path d="M3621 1151 c-22 -22 -29 -71 -11 -71 10 0 51 62 51 77 1 16 -21 13
-40 -6z"/>
<path d="M5870 1060 c-21 -13 -9 -20 46 -26 52 -6 109 9 99 26 -8 13 -125 13
-145 0z"/>
<path d="M5416 1023 c-7 -18 29 -63 51 -63 18 0 16 31 -3 58 -18 26 -39 29
-48 5z"/>
<path d="M3210 953 c0 -33 24 -46 70 -38 22 4 42 10 45 15 9 14 -24 32 -70 38
-40 4 -45 2 -45 -15z"/>
<path d="M3794 937 c-8 -21 1 -47 16 -47 19 0 23 31 7 48 -15 14 -17 14 -23
-1z"/>
<path d="M3910 811 c-13 -25 -13 -88 0 -96 13 -8 40 54 40 90 0 30 -25 34 -40
6z"/>
<path d="M5248 745 c-2 -47 -1 -85 2 -85 10 0 62 149 55 159 -3 6 -17 11 -30
11 -23 0 -24 -3 -27 -85z"/>
<path d="M5740 800 c-23 -14 4 -36 63 -52 45 -12 50 -11 63 7 8 10 14 23 14
27 0 23 -109 38 -140 18z"/>
<path d="M4001 686 c-10 -24 -29 -49 -41 -56 -34 -18 -81 -2 -121 41 -43 46
-75 50 -115 16 -38 -33 -45 -110 -14 -149 12 -16 30 -28 41 -28 25 0 91 -33
108 -54 12 -14 8 -25 -23 -72 -35 -52 -36 -57 -22 -79 25 -38 48 -38 131 0 88
40 152 46 177 18 17 -20 17 -78 -1 -111 -14 -27 -4 -51 25 -58 16 -4 53 9 121
43 141 70 138 78 -64 156 -165 65 -308 157 -243 157 11 0 54 -14 97 -31 155
-62 286 -100 304 -89 8 6 10 26 5 71 -8 71 -22 103 -61 139 -22 21 -28 22 -35
10 -5 -8 -10 -31 -10 -51 0 -60 -45 -84 -104 -57 -26 11 -66 96 -66 139 0 11
-7 35 -14 54 -21 51 -50 47 -75 -9z"/>
<path d="M5130 705 c-5 -13 -12 -48 -16 -77 -12 -93 -33 -118 -99 -118 -40 0
-53 15 -69 76 l-12 48 -29 -50 c-15 -27 -39 -63 -53 -81 -13 -18 -26 -50 -29
-73 -5 -34 -3 -40 13 -40 47 1 210 49 371 111 91 35 99 7 17 -56 -35 -27 -81
-47 -316 -137 -32 -13 -60 -28 -63 -36 -6 -16 56 -80 106 -110 20 -12 49 -22
64 -22 27 0 28 1 21 48 -3 26 -9 59 -12 74 -8 36 24 52 96 49 55 -2 143 -23
164 -39 36 -28 96 -19 116 18 10 19 7 23 -34 41 -48 21 -86 60 -86 89 0 41 31
59 105 62 57 2 74 7 91 25 30 33 50 98 38 131 -12 35 -69 72 -110 72 -36 0
-55 -24 -69 -87 -3 -18 -20 -44 -38 -59 -25 -21 -38 -25 -69 -21 -71 10 -77
26 -52 155 5 28 4 32 -15 32 -14 0 -25 -9 -31 -25z"/>
<path d="M3362 693 c4 -22 39 -28 67 -13 34 18 24 30 -25 30 -38 0 -45 -3 -42
-17z"/>
<path d="M5016 668 c-18 -58 -14 -90 10 -81 16 6 20 93 4 93 -6 0 -12 -6 -14
-12z"/>
<path d="M4157 651 c-7 -30 7 -83 25 -95 27 -17 30 -2 11 58 -19 59 -28 68
-36 37z"/>
<path d="M4504 563 c-18 -3 -22 -16 -33 -106 -7 -56 -15 -131 -18 -167 -2 -36
-9 -92 -14 -125 -6 -44 -5 -63 4 -72 15 -15 215 -29 280 -19 l47 7 0 57 c0 31
-5 84 -10 117 -5 33 -12 85 -15 115 -3 30 -10 85 -16 123 l-11 67 -83 0 c-46
0 -89 2 -97 4 -7 2 -22 1 -34 -1z m17 -235 c7 -13 13 -57 13 -98 0 -106 -30
-155 -53 -89 -21 62 -8 209 20 209 4 0 14 -10 20 -22z m110 -9 c11 -37 10
-145 -1 -173 -10 -26 -34 -34 -45 -16 -12 20 -7 190 6 206 16 20 32 13 40 -17z
m99 -5 c17 -50 9 -169 -12 -190 -15 -15 -17 -14 -32 14 -21 40 -21 143 -1 182
20 39 31 38 45 -6z"/>
<path d="M5562 498 c-59 -79 -74 -90 -121 -87 -58 4 -61 -8 -5 -24 67 -20 100
-5 194 88 l75 75 -52 0 c-52 0 -53 -1 -91 -52z"/>
<path d="M3561 484 c13 -14 47 -42 74 -62 28 -20 56 -42 63 -49 7 -7 16 -13
20 -13 7 0 52 65 52 75 0 14 -157 75 -193 75 l-40 0 24 -26z"/>
<path d="M3992 254 c-28 -19 -28 -31 -1 -39 14 -5 28 0 45 16 13 12 24 26 24
31 0 14 -44 9 -68 -8z"/>
<path d="M5126 203 c4 -21 8 -39 9 -41 6 -6 65 29 65 38 0 10 -52 40 -70 40
-7 0 -9 -13 -4 -37z"/>
<path d="M4307 174 c-26 -17 -37 -30 -33 -40 3 -9 6 -17 6 -20 0 -2 14 -10 30
-19 23 -12 35 -13 51 -5 17 9 20 19 17 58 -4 56 -17 61 -71 26z"/>
<path d="M4836 174 c-3 -9 -6 -31 -6 -50 0 -32 2 -35 23 -28 78 24 81 30 36
68 -35 30 -45 32 -53 10z"/>
</g>
</svg>
