<?xml version="1.0" encoding="UTF-8"?>
<!DOCTYPE svg PUBLIC "-//W3C//DTD SVG 1.1//EN" "http://www.w3.org/Graphics/SVG/1.1/DTD/svg11.dtd">
<!-- Creator: CorelDRAW X8 -->
<svg xmlns="http://www.w3.org/2000/svg" xml:space="preserve" width="86.6986mm" height="86.6986mm" version="1.1" style="shape-rendering:geometricPrecision; text-rendering:geometricPrecision; image-rendering:optimizeQuality; fill-rule:evenodd; clip-rule:evenodd"
viewBox="0 0 8670 8670"
 xmlns:xlink="http://www.w3.org/1999/xlink">
 <defs>
  <style type="text/css">
   <![CDATA[
    .fil0 {fill:black}
   ]]>
  </style>
 </defs>
 <g id="Слой_x0020_1">
  <metadata id="CorelCorpID_0Corel-Layer"/>
  <g id="_2679337790240">
   <g>
    <path class="fil0" d="M2407 17c413,0 827,0 1240,0 0,1210 0,2420 0,3630 -1210,0 -2420,0 -3630,0 0,-413 0,-827 0,-1240 797,0 1593,0 2390,0 0,-797 0,-1593 0,-2390z"/>
    <path class="fil0" d="M5027 17c414,0 827,0 1236,0 0,797 0,1593 0,2390 797,0 1593,0 2390,0 0,413 0,827 0,1240 -1210,0 -2416,0 -3626,0 0,-1210 0,-2420 0,-3630z"/>
    <path class="fil0" d="M17 5027c1210,0 2420,0 3630,0 0,1210 0,2420 0,3626 -413,0 -827,0 -1240,0 0,-797 0,-1593 0,-2390 -797,0 -1593,0 -2390,0 0,-413 0,-822 0,-1236z"/>
    <path class="fil0" d="M5027 5027c1210,0 2420,0 3626,0 0,414 0,827 0,1236 -797,0 -1593,0 -2390,0 0,797 0,1593 0,2390 -413,0 -822,0 -1236,0 0,-1210 0,-2416 0,-3626z"/>
   </g>
  </g>
 </g>
</svg>
